<svg width="32" height="32" viewBox="0 0 32 32" fill="none" xmlns="http://www.w3.org/2000/svg">
<path d="M18.2438 26.2315C17.4099 26.2932 16.465 26.3627 15.5197 26.3627C13.6766 26.3627 11.0419 26.1333 9.45203 24.1501C8.12445 22.4945 8.09208 20.9317 8.50382 20.0213C8.8218 19.3191 9.4387 18.8996 10.1541 18.8996C10.3636 18.8996 10.5802 18.9347 10.7977 19.0042C11.5174 19.2342 12.0796 19.5466 12.5756 19.8219C13.1311 20.1303 13.5699 20.3741 14.005 20.3741C14.2744 20.3741 14.5348 20.2818 14.8256 20.0834C15.3988 19.6931 16.5178 19.0334 17.7855 18.4595C17.9649 18.378 18.1572 18.2946 18.3586 18.2113C17.794 18.2014 17.3413 17.9754 17.3413 17.6985C17.3413 17.6966 17.3413 17.6946 17.3418 17.6926C17.4275 17.7163 17.5279 17.7296 17.6355 17.7296C17.9497 17.7296 18.2043 17.6147 18.2043 17.473C18.2043 17.3743 18.081 17.2885 17.8997 17.246C18.0477 17.2076 18.2167 17.1858 18.3962 17.1858C18.9788 17.1858 19.451 17.4153 19.451 17.6985C19.451 17.739 19.441 17.7785 19.4229 17.8165C20.1055 17.5949 20.8105 17.4336 21.4174 17.4336C21.8496 17.4336 22.2104 17.515 22.4955 17.6754C21.8001 14.6939 19.3991 12.5804 18.311 11.6073C17.6112 10.9816 16.8868 10.8054 16.0171 10.9149C16.0171 10.9149 16.0166 10.9149 16.0152 10.9149C16.0104 10.9154 15.9971 10.9179 15.9766 10.9199H15.9762C15.8686 10.9292 15.5796 10.9248 15.4863 10.6223C15.3702 10.2478 13.3553 6.08494 12.4052 6.8049C11.456 7.52436 12.3766 12.1205 12.0853 12.2483C12.0848 12.2483 12.0848 12.2488 12.0843 12.2488C11.6816 12.4106 11.2547 12.5809 10.8001 12.7546C10.8001 12.7546 10.4335 12.7659 10.2636 12.457C10.0932 12.1481 8.19252 9.38372 7.00108 9.86929C5.89484 10.3198 6.2071 13.8644 6.72309 16.0992C5.82867 17.6828 5.35505 19.7795 5.04803 22.5656C4.44017 28.0795 9.80332 27.5446 9.80332 27.5446C11.8016 29.1932 14.1435 30.307 15.7501 29.9245C17.1428 29.5929 17.3932 29.9887 19.9408 26.0203C19.6071 26.1047 19.2468 26.1604 18.865 26.1861C18.6642 26.1999 18.46 26.2147 18.2438 26.231V26.2315ZM18.4452 13.3951C19.2239 13.3951 19.8337 13.8718 19.8337 14.4802C19.8337 15.0886 19.2239 15.5653 18.4452 15.5653C17.6664 15.5653 17.0572 15.0886 17.0572 14.4802C17.0572 13.8718 17.6669 13.3951 18.4452 13.3951ZM14.3368 19.287C13.7542 19.287 13.282 19.0575 13.282 18.7743C13.282 18.761 13.2829 18.7481 13.2853 18.7353C13.3724 18.76 13.4752 18.7743 13.5857 18.7743C13.9003 18.7743 14.155 18.6593 14.155 18.5177C14.155 18.4299 14.0564 18.3519 13.9065 18.306C14.0379 18.2774 14.1835 18.2616 14.3368 18.2616C14.9194 18.2616 15.3916 18.491 15.3916 18.7743C15.3916 19.0575 14.9194 19.287 14.3368 19.287ZM13.0102 7.73112C13.093 7.64279 13.2006 7.59394 13.3134 7.59345C13.598 7.59345 13.8089 7.891 13.9607 8.15007C14.0502 8.30255 14.1454 8.46046 14.2468 8.62725C14.7709 9.49327 15.3131 10.3894 15.3697 11.0911C15.4159 11.6601 15.1317 11.9349 14.8852 12.0647C14.5481 12.2423 14.2754 12.3252 14.0274 12.3252C13.6947 12.3252 13.4119 12.1683 13.2101 11.8708C12.8764 11.3808 12.7308 10.495 12.7512 9.08469C12.7417 8.76492 12.7493 8.00943 13.0097 7.73063L13.0102 7.73112ZM11.1461 16.454C11.4803 15.8895 12.0048 15.5249 12.4818 15.5249C12.6503 15.5249 12.805 15.5688 12.9416 15.6556C13.4805 15.9986 13.5357 16.8863 13.0678 17.6763C12.7336 18.2409 12.209 18.606 11.7326 18.606C11.5641 18.606 11.4094 18.5621 11.2727 18.4753C10.7344 18.1333 10.6787 17.2456 11.1461 16.4545V16.454ZM7.71508 15.6117C7.55657 15.4267 7.45233 15.1794 7.39664 14.8562C7.39473 14.8458 7.3933 14.836 7.39188 14.8261C7.34856 14.571 7.31381 14.3213 7.28858 14.083C7.22242 13.4661 7.21004 12.8602 7.25193 12.2813L7.25431 12.2478C7.27763 11.9236 7.31333 11.4336 7.60703 11.173C7.73174 11.0625 7.87978 11.0043 8.03591 11.0043C8.4448 11.0043 8.78657 11.3887 9.0122 11.6428C9.02648 11.6586 9.03981 11.6739 9.05266 11.6882C9.34397 12.0124 9.60149 12.3647 9.85139 12.7052C9.92232 12.8019 9.99324 12.8986 10.0646 12.9949L10.0665 12.9968C10.0965 13.0378 10.1265 13.0783 10.1575 13.1187C10.6159 13.7242 10.6806 14.3243 10.3412 14.8083C10.0632 15.2056 9.63529 15.4202 9.25829 15.6097C9.20212 15.6379 9.14643 15.666 9.09217 15.6941C8.86606 15.8116 8.6214 15.9201 8.3634 15.9201C8.10541 15.9201 7.89168 15.816 7.71604 15.6107L7.71508 15.6117Z" fill="#110F23"/>
<path d="M22.5822 18.0968C22.5622 18.078 22.5417 18.0603 22.5203 18.0435C22.5136 18.038 22.5069 18.0331 22.4998 18.0277C22.4846 18.0158 22.4693 18.0045 22.4536 17.9936C22.446 17.9882 22.4379 17.9828 22.4298 17.9774C22.4136 17.9665 22.3965 17.9561 22.3799 17.9463C22.3727 17.9423 22.366 17.9379 22.3589 17.9339C22.3351 17.9206 22.3108 17.9078 22.2856 17.8959C22.2804 17.8935 22.2747 17.891 22.2694 17.8885C22.2494 17.8792 22.2285 17.8703 22.208 17.8619C22.1985 17.8579 22.189 17.8545 22.179 17.8505C22.1614 17.8436 22.1433 17.8372 22.1247 17.8313C22.1147 17.8278 22.1042 17.8244 22.0942 17.8214C22.0738 17.815 22.0528 17.8091 22.0319 17.8032C22.0238 17.8012 22.0162 17.7987 22.0086 17.7967C21.98 17.7893 21.951 17.7824 21.921 17.7765C21.9124 17.7745 21.9038 17.7731 21.8948 17.7716C21.8729 17.7671 21.8505 17.7632 21.8277 17.7597C21.8167 17.7578 21.8053 17.7563 21.7939 17.7548C21.7725 17.7518 21.751 17.7489 21.7292 17.7464C21.7182 17.7449 21.7073 17.7439 21.6963 17.743C21.6687 17.74 21.6406 17.738 21.6125 17.736C21.6078 17.736 21.6025 17.7351 21.5978 17.7351C21.5645 17.7331 21.5307 17.7316 21.4964 17.7306C21.4864 17.7306 21.4764 17.7306 21.4659 17.7306C21.4497 17.7306 21.434 17.7301 21.4174 17.7301C21.4088 17.7301 21.3998 17.7301 21.3907 17.7301C21.3783 17.7301 21.3655 17.7301 21.3531 17.7306C21.3284 17.7306 21.3036 17.7321 21.2789 17.7331C21.267 17.7331 21.2555 17.7341 21.2436 17.7346C21.2108 17.736 21.1779 17.738 21.1446 17.7405C21.1408 17.7405 21.137 17.7405 21.1327 17.7415C21.0956 17.7444 21.058 17.7479 21.0204 17.7518C21.009 17.7528 20.9971 17.7543 20.9856 17.7558C20.9585 17.7587 20.9318 17.7622 20.9042 17.7657C20.8904 17.7676 20.8771 17.7691 20.8633 17.7711C20.8366 17.7745 20.81 17.7785 20.7833 17.7824C20.7705 17.7844 20.7572 17.7864 20.7443 17.7884C20.7105 17.7938 20.6767 17.7997 20.6424 17.8056C20.6367 17.8066 20.631 17.8076 20.6253 17.8086C20.5853 17.816 20.5449 17.8234 20.5044 17.8318C20.4925 17.8342 20.4806 17.8367 20.4682 17.8392C20.4392 17.8451 20.4101 17.8515 20.3806 17.8579C20.3659 17.8609 20.3516 17.8643 20.3368 17.8678C20.3088 17.8742 20.2807 17.8806 20.2521 17.8875C20.2383 17.891 20.224 17.894 20.2102 17.8974C20.1759 17.9058 20.1412 17.9147 20.1064 17.9236C20.0993 17.9255 20.0917 17.927 20.0846 17.929C20.0427 17.9398 20.0003 17.9512 19.9579 17.963C19.9456 17.9665 19.9332 17.9699 19.9203 17.9734C19.8899 17.9818 19.8594 17.9907 19.8285 17.9996C19.8132 18.004 19.798 18.0084 19.7828 18.0129C19.7537 18.0213 19.7247 18.0302 19.6957 18.039C19.6809 18.0435 19.6661 18.0479 19.6509 18.0529C19.6166 18.0632 19.5824 18.0741 19.5481 18.0854C19.5391 18.0884 19.5295 18.0913 19.5205 18.0943C19.4772 18.1081 19.4339 18.1224 19.3905 18.1372C19.3782 18.1412 19.3658 18.1456 19.3534 18.1501C19.3215 18.1609 19.2901 18.1718 19.2582 18.1826C19.2425 18.1881 19.2273 18.1935 19.2116 18.1989C19.182 18.2093 19.1525 18.2201 19.123 18.2305C19.1078 18.2359 19.0926 18.2414 19.0769 18.2473C19.0431 18.2596 19.0093 18.2724 18.975 18.2848C18.965 18.2887 18.9545 18.2922 18.9445 18.2961C18.9007 18.3124 18.8569 18.3292 18.8131 18.3465C18.8012 18.3509 18.7889 18.3558 18.777 18.3608C18.7446 18.3736 18.7122 18.3859 18.6799 18.3988C18.6642 18.4052 18.6484 18.4111 18.6327 18.4175C18.6032 18.4294 18.5732 18.4412 18.5437 18.4535C18.5285 18.46 18.5133 18.4659 18.4976 18.4723C18.4642 18.4861 18.4304 18.4999 18.3971 18.5142C18.3866 18.5187 18.3757 18.5231 18.3652 18.5276C18.3214 18.5458 18.2776 18.5646 18.2338 18.5833C18.2229 18.5878 18.2119 18.5927 18.201 18.5976C18.1677 18.6119 18.1348 18.6263 18.102 18.6411C18.0868 18.6475 18.0715 18.6544 18.0568 18.6613C18.0273 18.6741 17.9977 18.6874 17.9682 18.7008C17.953 18.7077 17.9382 18.7141 17.923 18.721C17.8906 18.7358 17.8583 18.7501 17.8264 18.7649C17.815 18.7698 17.804 18.7753 17.7926 18.7802C17.7497 18.7999 17.7069 18.8197 17.6645 18.8394C17.6545 18.8444 17.6445 18.8488 17.6346 18.8537C17.6017 18.869 17.5689 18.8848 17.536 18.9001C17.5213 18.907 17.507 18.9139 17.4927 18.9208C17.4641 18.9347 17.4351 18.9485 17.4065 18.9623C17.3918 18.9692 17.377 18.9766 17.3623 18.9835C17.3313 18.9988 17.3004 19.0136 17.2699 19.0289C17.259 19.0343 17.248 19.0398 17.2371 19.0452C17.1957 19.0659 17.1543 19.0862 17.1133 19.1069C17.1052 19.1108 17.0971 19.1148 17.0891 19.1192C17.0562 19.136 17.0234 19.1523 16.9905 19.1691C16.9767 19.176 16.9634 19.1829 16.9496 19.1898C16.922 19.2036 16.8948 19.2179 16.8677 19.2317C16.8539 19.2391 16.8401 19.246 16.8258 19.2534C16.7963 19.2687 16.7673 19.284 16.7382 19.2988C16.7278 19.3043 16.7173 19.3097 16.7068 19.3151C16.6678 19.3359 16.6288 19.3566 16.5897 19.3773C16.5835 19.3808 16.5778 19.3837 16.5716 19.3872C16.5393 19.4044 16.5069 19.4217 16.475 19.439C16.4626 19.4454 16.4507 19.4523 16.4384 19.4587C16.4122 19.473 16.386 19.4873 16.3598 19.5017C16.3474 19.5086 16.3351 19.515 16.3227 19.5219C16.296 19.5367 16.2694 19.5515 16.2427 19.5663C16.2327 19.5717 16.2222 19.5776 16.2123 19.5831C16.1761 19.6033 16.1404 19.6235 16.1047 19.6433C16.1009 19.6453 16.0971 19.6477 16.0928 19.6497C16.0614 19.6675 16.0304 19.6847 16 19.7025C15.989 19.7089 15.9781 19.7148 15.9676 19.7212C15.9438 19.7346 15.9205 19.7484 15.8976 19.7617C15.8862 19.7686 15.8743 19.775 15.8629 19.7819C15.8391 19.7958 15.8157 19.8096 15.7924 19.8234C15.7829 19.8288 15.7734 19.8342 15.7643 19.8397C15.732 19.8589 15.7001 19.8777 15.6687 19.8964C15.6667 19.8974 15.6648 19.8984 15.6629 19.8999C15.6339 19.9171 15.6049 19.9344 15.5768 19.9517C15.5673 19.9571 15.5582 19.963 15.5492 19.9685C15.5278 19.9813 15.5068 19.9941 15.4863 20.007C15.4768 20.0129 15.4673 20.0188 15.4573 20.0247C15.4364 20.0376 15.4159 20.0504 15.3959 20.0627C15.3878 20.0677 15.3797 20.0726 15.3716 20.078C15.344 20.0953 15.3164 20.1126 15.2898 20.1293C15.2898 20.1293 15.2893 20.1293 15.2888 20.1298C15.2626 20.1461 15.2374 20.1624 15.2126 20.1787C15.205 20.1836 15.1974 20.1886 15.1898 20.1935C15.1722 20.2048 15.155 20.2162 15.1379 20.227C15.1298 20.2325 15.1217 20.2374 15.1141 20.2428C15.097 20.2542 15.0808 20.265 15.0641 20.2759C15.0575 20.2803 15.0508 20.2848 15.0441 20.2892C15.0218 20.304 14.9999 20.3188 14.9789 20.3331C14.9727 20.3376 14.9665 20.3415 14.9599 20.3455C14.9442 20.3558 14.928 20.3667 14.9128 20.3766C14.9037 20.3825 14.8947 20.3879 14.8856 20.3933C14.8728 20.4012 14.8599 20.4096 14.8475 20.417C14.8366 20.4234 14.8256 20.4294 14.8147 20.4358C14.8042 20.4417 14.7933 20.4481 14.7828 20.454C14.7719 20.46 14.7609 20.4659 14.75 20.4718C14.7395 20.4772 14.7295 20.4831 14.719 20.4881C14.7085 20.4935 14.6976 20.4984 14.6871 20.5039C14.6767 20.5088 14.6662 20.5142 14.6562 20.5192C14.6452 20.5241 14.6348 20.5285 14.6238 20.5335C14.6138 20.5379 14.6038 20.5429 14.5938 20.5468C14.5829 20.5512 14.5724 20.5552 14.5619 20.5596C14.5519 20.5636 14.5419 20.568 14.532 20.5715C14.5215 20.5754 14.5105 20.5789 14.5001 20.5828C14.4901 20.5863 14.4805 20.5902 14.4705 20.5932C14.4601 20.5966 14.4491 20.6001 14.4387 20.6031C14.4291 20.606 14.4196 20.6095 14.4096 20.6119C14.3991 20.6149 14.3892 20.6174 14.3787 20.6203C14.3692 20.6228 14.3592 20.6258 14.3496 20.6282C14.3396 20.6307 14.3296 20.6327 14.3197 20.6351C14.3097 20.6376 14.3001 20.6396 14.2901 20.6415C14.2801 20.6435 14.2701 20.6455 14.2597 20.647C14.2502 20.649 14.2406 20.6504 14.2306 20.6524C14.2206 20.6539 14.2106 20.6554 14.2007 20.6568C14.1911 20.6583 14.1816 20.6598 14.1721 20.6608C14.1621 20.6618 14.1526 20.6628 14.1426 20.6638C14.1331 20.6647 14.1231 20.6657 14.1135 20.6667C14.104 20.6677 14.0945 20.6677 14.085 20.6687C14.075 20.6692 14.0655 20.6702 14.0555 20.6702C14.046 20.6702 14.0364 20.6702 14.0269 20.6707C14.0183 20.6707 14.0098 20.6712 14.0012 20.6712C14.0003 20.6712 13.9993 20.6712 13.9984 20.6712C13.9726 20.6712 13.9474 20.6702 13.9217 20.6687C13.9155 20.6687 13.9093 20.6677 13.9036 20.6677C13.8813 20.6662 13.8584 20.6642 13.836 20.6618C13.8322 20.6618 13.8289 20.6613 13.8251 20.6608C13.7999 20.6578 13.7746 20.6539 13.7494 20.6499C13.7432 20.649 13.737 20.648 13.7308 20.6465C13.7085 20.6425 13.6856 20.6381 13.6632 20.6332C13.6599 20.6322 13.6561 20.6317 13.6528 20.6312C13.6275 20.6258 13.6023 20.6193 13.5771 20.6124C13.5709 20.611 13.5647 20.609 13.5585 20.6075C13.5361 20.6011 13.5133 20.5947 13.4909 20.5878C13.4876 20.5868 13.4843 20.5858 13.4805 20.5848C13.4552 20.5769 13.43 20.568 13.4043 20.5591C13.3976 20.5567 13.3914 20.5547 13.3848 20.5522C13.3619 20.5438 13.3391 20.5355 13.3162 20.5266C13.3129 20.5251 13.3096 20.5241 13.3067 20.5226C13.281 20.5128 13.2553 20.5019 13.2296 20.491C13.2229 20.4881 13.2163 20.4856 13.2101 20.4827C13.1868 20.4728 13.1639 20.4624 13.1406 20.4521C13.1373 20.4506 13.1339 20.4491 13.1306 20.4476C13.1044 20.4358 13.0782 20.4234 13.0521 20.4106C13.0454 20.4072 13.0382 20.4042 13.0316 20.4007C13.0078 20.3894 12.984 20.3775 12.9602 20.3657C12.9569 20.3642 12.954 20.3627 12.9507 20.3613C12.924 20.3479 12.8969 20.3341 12.8697 20.3198C12.8631 20.3164 12.8559 20.3124 12.8493 20.309C12.825 20.2961 12.8002 20.2833 12.776 20.27C12.7726 20.268 12.7693 20.2665 12.766 20.2645C12.7384 20.2497 12.7108 20.2349 12.6827 20.2196C12.6755 20.2157 12.6679 20.2117 12.6608 20.2078C12.6355 20.194 12.6103 20.1802 12.5851 20.1663C12.5818 20.1644 12.5784 20.1629 12.5756 20.1609C12.5465 20.1451 12.5175 20.1288 12.488 20.1126C12.4237 20.077 12.3585 20.0405 12.2914 20.0035C12.2843 19.9996 12.2771 19.9956 12.27 19.9917C12.24 19.9754 12.21 19.9586 12.18 19.9423C12.1786 19.9413 12.1767 19.9403 12.1753 19.9398C12.1448 19.9231 12.1134 19.9063 12.082 19.8895C12.0739 19.8851 12.0658 19.8811 12.0582 19.8767C12.0277 19.8604 11.9967 19.8441 11.9658 19.8278C11.9639 19.8268 11.962 19.8259 11.9606 19.8249C11.9282 19.8081 11.8958 19.7908 11.863 19.774C11.8549 19.7696 11.8463 19.7657 11.8378 19.7612C11.8059 19.7449 11.774 19.7286 11.7411 19.7124C11.7392 19.7114 11.7373 19.7104 11.7354 19.7094C11.7016 19.6926 11.6674 19.6758 11.6326 19.6591C11.624 19.6551 11.6155 19.6507 11.6069 19.6467C11.5731 19.6304 11.5388 19.6147 11.5041 19.5984C11.5027 19.5979 11.5012 19.5969 11.4993 19.5964C11.4636 19.5801 11.4274 19.5638 11.3908 19.5475C11.3817 19.5436 11.3727 19.5396 11.3637 19.5357C11.3275 19.5199 11.2913 19.5041 11.2542 19.4888C11.2528 19.4883 11.2518 19.4878 11.2504 19.4873C11.2128 19.4716 11.1742 19.4563 11.1357 19.441C11.1261 19.437 11.1161 19.4336 11.1066 19.4296C11.0681 19.4143 11.029 19.3995 10.9895 19.3847C10.989 19.3847 10.9881 19.3842 10.9876 19.3837C10.9476 19.3689 10.9072 19.3546 10.8662 19.3403C10.8562 19.3368 10.8458 19.3334 10.8358 19.3299C10.7944 19.3156 10.7525 19.3018 10.7101 19.288C10.6825 19.2791 10.6549 19.2712 10.6273 19.2633C10.6187 19.2608 10.6101 19.2589 10.6016 19.2564C10.5825 19.2515 10.5635 19.2465 10.5445 19.2426C10.5349 19.2406 10.5249 19.2381 10.5154 19.2362C10.4969 19.2322 10.4778 19.2288 10.4593 19.2253C10.4507 19.2238 10.4421 19.2219 10.4335 19.2209C10.4074 19.2164 10.3817 19.2125 10.356 19.2095C10.355 19.2095 10.3545 19.2095 10.3536 19.2095C10.3274 19.2066 10.3012 19.2041 10.2755 19.2021C10.2674 19.2016 10.2593 19.2011 10.2512 19.2006C10.2331 19.1997 10.2151 19.1987 10.197 19.1982C10.1879 19.1982 10.1789 19.1982 10.1703 19.1977C10.1637 19.1977 10.157 19.1977 10.1503 19.1977C10.1408 19.1977 10.1313 19.1977 10.1222 19.1982C10.1113 19.1982 10.1003 19.1982 10.0899 19.1992C10.0737 19.1997 10.058 19.2006 10.0423 19.2021C10.0323 19.2026 10.0223 19.2036 10.0123 19.2041C9.99467 19.2056 9.97753 19.2076 9.9604 19.21C9.95231 19.211 9.94421 19.212 9.93612 19.213C9.88566 19.2199 9.83616 19.2298 9.78808 19.2416C9.78094 19.2436 9.7738 19.2455 9.76666 19.2475C9.75 19.252 9.73287 19.2564 9.71621 19.2618C9.70764 19.2643 9.69907 19.2673 9.6905 19.2702C9.67575 19.2752 9.66099 19.2801 9.64623 19.2855C9.63719 19.289 9.62815 19.2924 9.6191 19.2959C9.6053 19.3013 9.59102 19.3067 9.57721 19.3127C9.56817 19.3166 9.55913 19.3206 9.55008 19.3245C9.53675 19.3304 9.52342 19.3368 9.5101 19.3433C9.50153 19.3477 9.49248 19.3516 9.48392 19.3561C9.47059 19.363 9.45726 19.3699 9.44441 19.3773C9.43632 19.3817 9.42775 19.3862 9.41966 19.3911C9.40585 19.399 9.39252 19.4074 9.3792 19.4158C9.37206 19.4202 9.36444 19.4247 9.3573 19.4296C9.34254 19.4395 9.32779 19.4493 9.31351 19.4597C9.30827 19.4637 9.30256 19.4671 9.29685 19.4711C9.25686 19.5002 9.21831 19.5308 9.18118 19.5643C9.17642 19.5688 9.17166 19.5732 9.1669 19.5772C9.15309 19.5895 9.13976 19.6018 9.12644 19.6151C9.12025 19.6211 9.11454 19.6275 9.10835 19.6334C9.09692 19.6452 9.0855 19.6571 9.07408 19.6689C9.06789 19.6758 9.06122 19.6828 9.05504 19.6897C9.04456 19.7015 9.03409 19.7133 9.02362 19.7257C9.01743 19.7331 9.01124 19.7405 9.00506 19.7484C8.99506 19.7607 8.98506 19.7731 8.97554 19.7854C8.96935 19.7933 8.96364 19.8012 8.95745 19.8091C8.94793 19.8219 8.93841 19.8352 8.92889 19.8486C8.92318 19.8565 8.91795 19.8643 8.91223 19.8722C8.90271 19.8866 8.89319 19.9009 8.88415 19.9157C8.87939 19.9231 8.87463 19.931 8.86987 19.9384C8.85987 19.9551 8.84988 19.9719 8.84036 19.9892C8.83703 19.9951 8.83322 20.001 8.82989 20.007C8.8037 20.0538 8.77943 20.1022 8.75706 20.1525C8.7542 20.1589 8.75134 20.1654 8.74849 20.1718C8.7404 20.1905 8.7323 20.2093 8.72469 20.228C8.72136 20.2369 8.71755 20.2458 8.71422 20.2547C8.70755 20.2719 8.70089 20.2887 8.6947 20.3065C8.69137 20.3164 8.68756 20.3262 8.68423 20.3366C8.67852 20.3534 8.6728 20.3701 8.66757 20.3874C8.66424 20.3978 8.6609 20.4086 8.65805 20.419C8.65281 20.4363 8.64805 20.453 8.64329 20.4708C8.64044 20.4817 8.63758 20.4925 8.63472 20.5034C8.62996 20.5211 8.62568 20.5389 8.6214 20.5567C8.61902 20.5675 8.61616 20.5784 8.61378 20.5892C8.60949 20.608 8.60569 20.6272 8.60188 20.6465C8.59997 20.6568 8.59759 20.6672 8.59569 20.6776C8.59188 20.6993 8.58807 20.721 8.58474 20.7427C8.58331 20.7511 8.58189 20.759 8.58093 20.7669C8.57189 20.8276 8.56523 20.8898 8.55999 20.9529C8.55951 20.9618 8.55904 20.9702 8.55809 20.9791C8.55666 21.0018 8.55523 21.025 8.5538 21.0482C8.55333 21.0595 8.55285 21.0709 8.55285 21.0827C8.55237 21.1034 8.55142 21.1242 8.55142 21.1449C8.55142 21.1577 8.55142 21.1705 8.55142 21.1834C8.55142 21.2036 8.55142 21.2233 8.5519 21.2436C8.5519 21.2569 8.55237 21.2702 8.55285 21.284C8.55333 21.3043 8.55428 21.3245 8.55523 21.3447C8.55571 21.3585 8.55666 21.3719 8.55761 21.3857C8.55904 21.4064 8.56047 21.4271 8.56237 21.4479C8.56332 21.4612 8.56475 21.475 8.5657 21.4883C8.56761 21.51 8.57046 21.5318 8.57284 21.5535C8.57427 21.5663 8.5757 21.5791 8.57713 21.592C8.57998 21.6161 8.58379 21.6408 8.5876 21.665C8.58903 21.6753 8.59045 21.6862 8.59236 21.6966C8.60331 21.7671 8.61711 21.8387 8.63282 21.9107C8.6352 21.9216 8.63806 21.9324 8.64044 21.9438C8.64615 21.969 8.65186 21.9941 8.65805 22.0193C8.66138 22.0331 8.66519 22.0469 8.669 22.0607C8.67471 22.0834 8.6809 22.1061 8.68708 22.1293C8.69137 22.1441 8.69565 22.1589 8.69994 22.1742C8.7066 22.1964 8.71279 22.2182 8.71993 22.2404C8.72469 22.2557 8.72945 22.2714 8.73468 22.2867C8.74182 22.3085 8.74896 22.3307 8.75658 22.3524C8.76182 22.3682 8.76753 22.384 8.77276 22.3993C8.78038 22.4215 8.78895 22.4437 8.79704 22.4664C8.80275 22.4817 8.80847 22.4975 8.81465 22.5128C8.8237 22.5359 8.83274 22.5591 8.84226 22.5828C8.84797 22.5976 8.85416 22.6119 8.85987 22.6267C8.87035 22.6524 8.88177 22.6781 8.89272 22.7037C8.89843 22.7166 8.90367 22.7289 8.9089 22.7417C8.92604 22.7797 8.94365 22.8177 8.96174 22.8562C8.96174 22.8562 8.96174 22.8562 8.96174 22.8567C8.9803 22.8952 8.99934 22.9337 9.01886 22.9722C9.02552 22.985 9.03219 22.9973 9.03885 23.0102C9.05218 23.0363 9.06598 23.0625 9.08026 23.0881C9.08836 23.1034 9.09692 23.1187 9.10549 23.1335C9.11882 23.1572 9.13167 23.1809 9.14548 23.2046C9.155 23.2209 9.16452 23.2372 9.17404 23.2534C9.18737 23.2761 9.20117 23.2993 9.21497 23.3225C9.22497 23.3393 9.23544 23.3556 9.24591 23.3724C9.26019 23.3951 9.27447 23.4178 9.28923 23.4405C9.30018 23.4572 9.31065 23.474 9.3216 23.4908C9.33683 23.514 9.35206 23.5367 9.36777 23.5599C9.37872 23.5762 9.39014 23.5924 9.40109 23.6092C9.41775 23.6329 9.43441 23.6571 9.45155 23.6808C9.4625 23.6966 9.47344 23.7119 9.48487 23.7277C9.50391 23.7538 9.5239 23.78 9.54342 23.8066C9.55341 23.8199 9.56293 23.8328 9.57293 23.8461C9.60244 23.8851 9.63291 23.9241 9.66432 23.9625C9.66432 23.963 9.66527 23.9635 9.66527 23.964C9.70431 24.0129 9.74477 24.0602 9.78523 24.1071C9.7976 24.1214 9.80998 24.1348 9.82236 24.1491C9.85187 24.1826 9.88186 24.2152 9.91232 24.2478C9.92565 24.2616 9.9385 24.2759 9.95231 24.2897C9.98801 24.3267 10.0237 24.3627 10.0604 24.3983C10.0675 24.4052 10.0742 24.4121 10.0813 24.419C10.1246 24.4609 10.1689 24.5014 10.2136 24.5414C10.226 24.5522 10.2384 24.5626 10.2508 24.5734C10.2846 24.6026 10.3184 24.6317 10.3526 24.6598C10.3674 24.6721 10.3821 24.684 10.3974 24.6958C10.4331 24.7244 10.4692 24.7526 10.5059 24.7802C10.5173 24.7886 10.5283 24.7975 10.5397 24.8059C10.5873 24.8414 10.6349 24.8754 10.6834 24.909C10.6944 24.9164 10.7053 24.9238 10.7163 24.9312C10.7549 24.9574 10.7934 24.983 10.8324 25.0077C10.8481 25.0181 10.8643 25.0279 10.8805 25.0378C10.9176 25.061 10.9548 25.0832 10.9924 25.1054C11.0067 25.1138 11.0205 25.1222 11.0347 25.1306C11.0857 25.1602 11.1371 25.1888 11.189 25.2164C11.1956 25.2199 11.2023 25.2233 11.209 25.2268C11.2547 25.251 11.3008 25.2742 11.3475 25.2974C11.3641 25.3053 11.3803 25.3131 11.397 25.321C11.4355 25.3398 11.4746 25.3576 11.5136 25.3753C11.5298 25.3827 11.5464 25.3901 11.5626 25.3975C11.6136 25.4202 11.6645 25.4419 11.7159 25.4632C11.7192 25.4646 11.7226 25.4661 11.7259 25.4671C11.7811 25.4893 11.8363 25.511 11.892 25.5317C11.9082 25.5377 11.9244 25.5436 11.9411 25.5495C11.982 25.5643 12.0229 25.5791 12.0643 25.5934C12.0824 25.5994 12.1 25.6058 12.1181 25.6117C12.1643 25.627 12.211 25.6423 12.2576 25.6566C12.2685 25.66 12.279 25.6635 12.2895 25.667C12.3466 25.6842 12.4042 25.701 12.4623 25.7173C12.477 25.7212 12.4923 25.7252 12.5075 25.7296C12.5513 25.7415 12.5956 25.7533 12.6398 25.7642C12.6589 25.7691 12.6774 25.7735 12.6965 25.7785C12.7412 25.7893 12.786 25.7997 12.8307 25.8101C12.8455 25.8135 12.8607 25.817 12.8755 25.8204C12.9345 25.8337 12.994 25.8461 13.0535 25.8579C13.0654 25.8604 13.0778 25.8624 13.0897 25.8648C13.1382 25.8742 13.1863 25.8836 13.2348 25.892C13.2539 25.8954 13.2729 25.8989 13.2924 25.9018C13.3367 25.9092 13.381 25.9166 13.4257 25.9241C13.4433 25.927 13.4605 25.9295 13.4781 25.9324C13.5385 25.9418 13.5995 25.9507 13.6604 25.9586C13.6651 25.9591 13.6704 25.9596 13.6751 25.9606C13.7318 25.968 13.788 25.9749 13.8446 25.9818C13.8636 25.9838 13.8827 25.9862 13.9012 25.9882C13.946 25.9931 13.9907 25.9981 14.035 26.0025C14.054 26.0045 14.0731 26.0065 14.0921 26.0079C14.1469 26.0134 14.2021 26.0183 14.2573 26.0227C14.264 26.0232 14.2711 26.0237 14.2778 26.0247C14.3396 26.0297 14.402 26.0341 14.4639 26.038C14.4815 26.039 14.4996 26.04 14.5172 26.0415C14.5629 26.0445 14.6086 26.0469 14.6543 26.0494C14.6743 26.0504 14.6943 26.0514 14.7143 26.0524C14.7638 26.0548 14.8137 26.0568 14.8633 26.0588C14.8761 26.0588 14.889 26.0598 14.9018 26.0602C14.9642 26.0622 15.0265 26.0642 15.0889 26.0657C15.1041 26.0657 15.1193 26.0662 15.1341 26.0667C15.1822 26.0676 15.2303 26.0686 15.2779 26.0691C15.2978 26.0691 15.3178 26.0691 15.3383 26.0696C15.385 26.0696 15.4316 26.0701 15.4783 26.0706C15.4897 26.0706 15.5016 26.0706 15.513 26.0706C15.5178 26.0706 15.522 26.0706 15.5268 26.0706C15.592 26.0706 15.6568 26.0706 15.722 26.0696C15.7362 26.0696 15.75 26.0696 15.7643 26.0691C15.8172 26.0686 15.87 26.0676 15.9224 26.0667C15.9409 26.0667 15.959 26.0662 15.9776 26.0657C16.0376 26.0642 16.0975 26.0627 16.157 26.0612C16.1623 26.0612 16.1675 26.0612 16.1727 26.0612C16.2375 26.0593 16.3022 26.0568 16.367 26.0543C16.385 26.0538 16.4027 26.0528 16.4203 26.0524C16.4707 26.0504 16.5207 26.0484 16.5712 26.0459C16.5873 26.0454 16.6035 26.0445 16.6197 26.044C16.6835 26.041 16.7473 26.038 16.8106 26.0346C16.8211 26.0341 16.8311 26.0336 16.8415 26.0331C16.8958 26.0301 16.9496 26.0272 17.0038 26.0242C17.0219 26.0232 17.04 26.0223 17.0586 26.0213C17.1124 26.0183 17.1657 26.0148 17.2195 26.0114C17.229 26.0109 17.239 26.0104 17.2485 26.0094C17.3109 26.0055 17.3732 26.0015 17.4346 25.9971C17.4513 25.9961 17.468 25.9946 17.4851 25.9936C17.5336 25.9902 17.5817 25.9872 17.6298 25.9838C17.646 25.9828 17.6617 25.9813 17.6779 25.9803C17.7393 25.9759 17.8002 25.9714 17.8607 25.9675C17.8635 25.9675 17.8659 25.9675 17.8687 25.967C17.9282 25.9625 17.9877 25.9586 18.0463 25.9542C18.0677 25.9527 18.0891 25.9512 18.1101 25.9492C18.1629 25.9453 18.2153 25.9413 18.2676 25.9374C18.3257 25.9329 18.3828 25.929 18.44 25.9245C18.4547 25.9236 18.469 25.9226 18.4837 25.9216C18.5285 25.9181 18.5732 25.9152 18.6175 25.9117C18.6346 25.9107 18.6518 25.9092 18.6689 25.9083C18.7265 25.9043 18.7832 25.9004 18.8398 25.8964C19.2301 25.8698 19.5757 25.813 19.8818 25.7346C19.9836 25.7084 20.0812 25.6798 20.1745 25.6492C21.4983 25.2149 21.971 24.3647 22.1142 24.0144C22.1685 23.8811 22.2242 23.7479 22.2827 23.6166C22.5836 22.9391 23.3476 20.9302 22.9268 18.7792C22.8697 18.4871 22.7488 18.2645 22.5755 18.1022L22.5822 18.0968ZM22.0257 19.5337C21.98 19.7489 21.9205 19.9783 21.8496 20.2162C21.7339 20.6016 21.5906 21.0023 21.3274 21.323C21.1341 21.5579 20.9042 21.6823 20.6619 21.6823C20.6248 21.6823 20.5877 21.6793 20.5506 21.6734C19.9855 21.5816 18.3314 21.0511 18.0001 20.1515C17.9168 19.9255 17.8802 19.5776 18.1767 19.2016C18.4923 18.8004 18.8979 18.4792 19.3491 18.2724C19.7095 18.1071 20.0945 18.0198 20.4625 18.0198C20.5553 18.0198 20.6486 18.0252 20.74 18.0366C20.9804 18.0662 21.2089 18.1328 21.4188 18.2344C21.5878 18.3159 21.7639 18.4091 21.9005 18.5739H21.901L21.9038 18.5784C21.9043 18.5794 21.9053 18.5799 21.9057 18.5809L21.9276 18.608L21.93 18.6129C22.1537 18.9233 22.0676 19.3339 22.0252 19.5352L22.0257 19.5337Z" fill="#110F23"/>
<path d="M21.7368 18.8483C21.7239 18.8222 21.7082 18.797 21.6896 18.7733C21.6892 18.7728 21.6882 18.7718 21.6877 18.7708C21.5854 18.645 21.4397 18.5705 21.2984 18.5024C21.2517 18.4797 21.2041 18.4595 21.156 18.4407C21.0113 18.3854 20.86 18.3489 20.7062 18.3302C20.6248 18.3203 20.5434 18.3159 20.462 18.3159C20.2907 18.3159 20.1193 18.3366 19.9517 18.3756C19.9099 18.3854 19.8684 18.3963 19.827 18.4081C19.7442 18.4318 19.6628 18.46 19.5828 18.492C19.5429 18.5078 19.5034 18.5251 19.4643 18.5429C19.3096 18.6139 19.1606 18.6998 19.0207 18.798C18.9274 18.8636 18.8374 18.9352 18.7517 19.0116C18.7089 19.0501 18.6675 19.0896 18.6265 19.1301C18.5456 19.2115 18.469 19.2979 18.3976 19.3887C17.6079 20.3889 19.7599 21.2455 20.5944 21.3808C20.6172 21.3842 20.6396 21.3862 20.6619 21.3862C20.8409 21.3862 20.9952 21.2707 21.1099 21.1311C21.1389 21.0955 21.166 21.059 21.1922 21.021C21.2703 20.9075 21.335 20.7832 21.3912 20.6544C21.4283 20.5685 21.4621 20.4807 21.4926 20.3924C21.523 20.304 21.5511 20.2152 21.5773 20.1284C21.6097 20.0208 21.6401 19.9117 21.6687 19.8017C21.683 19.7469 21.6968 19.6916 21.7096 19.6364C21.723 19.5811 21.7353 19.5258 21.7472 19.4706C21.7529 19.4429 21.7587 19.4148 21.7644 19.3852C21.7701 19.3556 21.7748 19.326 21.7791 19.2954C21.792 19.2041 21.7977 19.1089 21.7863 19.0186C21.7787 18.9584 21.7634 18.9011 21.7377 18.8483H21.7368Z" fill="#110F23"/>
<path d="M8.36245 15.625C8.38673 15.625 8.411 15.6235 8.43528 15.6211C8.43718 15.6211 8.43909 15.6211 8.44099 15.6206C8.46384 15.6181 8.48669 15.6142 8.50954 15.6097C8.51192 15.6097 8.5143 15.6087 8.51668 15.6082C8.53952 15.6033 8.56237 15.5979 8.58522 15.5915C8.58712 15.591 8.58903 15.5905 8.59093 15.59C8.61521 15.5831 8.63996 15.5752 8.66424 15.5663C8.68899 15.5574 8.71327 15.548 8.73802 15.5377C8.73992 15.5367 8.74183 15.5362 8.74373 15.5352C8.76658 15.5258 8.78943 15.5155 8.81227 15.5051C8.81465 15.5041 8.81703 15.5031 8.81941 15.5021C8.84226 15.4918 8.86464 15.4809 8.88701 15.4696C8.88891 15.4686 8.89034 15.4681 8.89224 15.4671C8.91604 15.4553 8.93984 15.4434 8.96317 15.4311C9.2402 15.2875 9.54865 15.1503 9.80332 14.9514C9.91899 14.8611 10.0237 14.758 10.1094 14.6361C10.2065 14.4975 10.2546 14.3534 10.2655 14.2088C10.2679 14.1797 10.2684 14.151 10.2679 14.1219C10.2665 14.0642 10.2598 14.0065 10.2484 13.9492C10.237 13.892 10.2203 13.8352 10.2003 13.779C10.1903 13.7509 10.1789 13.7232 10.167 13.6956C10.1489 13.6541 10.1289 13.6132 10.1075 13.5727C10.0932 13.5461 10.078 13.5194 10.0618 13.4928C10.0461 13.4666 10.0294 13.4405 10.0123 13.4148C9.98658 13.3763 9.95992 13.3388 9.93232 13.3023C9.90042 13.2604 9.86901 13.2184 9.83807 13.176C9.79761 13.1217 9.75714 13.0669 9.71716 13.0121C9.63672 12.9026 9.55675 12.793 9.4763 12.684C9.39586 12.5749 9.31446 12.4664 9.23164 12.3593C9.1074 12.1984 8.97888 12.041 8.84321 11.89C8.84226 11.889 8.84131 11.8875 8.83988 11.8866C8.83036 11.8757 8.82037 11.8648 8.80989 11.853C8.79704 11.8387 8.78419 11.8239 8.77039 11.8086C8.76896 11.8071 8.76801 11.8056 8.76658 11.8041C8.75563 11.7918 8.74421 11.7795 8.73278 11.7666C8.7304 11.7637 8.72755 11.7607 8.72517 11.7583C8.71279 11.7444 8.69994 11.7306 8.68709 11.7168C8.68423 11.7138 8.68137 11.7109 8.67852 11.7079C8.66662 11.6951 8.65472 11.6828 8.64234 11.6699C8.63996 11.6675 8.63758 11.665 8.6352 11.6625C8.6214 11.6487 8.60759 11.6344 8.59331 11.6206C8.5895 11.6171 8.58617 11.6137 8.58236 11.6097C8.56808 11.5954 8.55333 11.5816 8.53857 11.5678C8.53762 11.5668 8.53667 11.5663 8.53572 11.5653C8.52144 11.552 8.50668 11.5387 8.49192 11.5258C8.48812 11.5224 8.48383 11.5189 8.48002 11.5155C8.46479 11.5026 8.44956 11.4898 8.43385 11.477C8.43099 11.475 8.42861 11.4725 8.42576 11.4706C8.41195 11.4597 8.39815 11.4493 8.38387 11.439C8.38006 11.4365 8.37673 11.4336 8.37292 11.4311C8.35721 11.4197 8.34103 11.4094 8.32485 11.399C8.32104 11.3965 8.31771 11.3946 8.3139 11.3921C8.29914 11.3832 8.28486 11.3748 8.2701 11.3669C8.26772 11.3655 8.26487 11.364 8.26249 11.3625C8.2463 11.3541 8.22964 11.3462 8.21298 11.3393C8.20918 11.3378 8.20489 11.3359 8.20108 11.3344C8.18395 11.3275 8.16729 11.3215 8.15015 11.3166C8.14968 11.3166 8.1492 11.3166 8.14872 11.3166C8.13206 11.3117 8.1154 11.3082 8.09922 11.3058C8.09541 11.3053 8.0916 11.3043 8.08732 11.3038C8.07066 11.3013 8.054 11.2998 8.03686 11.2998C8.03591 11.2998 8.03543 11.2998 8.03448 11.2998C8.02544 11.2998 8.01639 11.3003 8.00687 11.3008C8.00592 11.3008 8.00449 11.3008 8.00354 11.3008C7.99212 11.3018 7.98117 11.3033 7.96975 11.3058C7.96594 11.3062 7.96261 11.3072 7.9588 11.3082C7.95118 11.3097 7.94356 11.3117 7.93595 11.3141C7.93166 11.3156 7.92738 11.3171 7.9231 11.3186C7.91596 11.321 7.90929 11.3235 7.90215 11.3265C7.89787 11.3284 7.89311 11.3304 7.88882 11.3324C7.88216 11.3354 7.87502 11.3393 7.86836 11.3428C7.86407 11.3452 7.85979 11.3472 7.8555 11.3497C7.84836 11.3541 7.84075 11.359 7.83361 11.364C7.83028 11.3664 7.82647 11.3689 7.82266 11.3714C7.81171 11.3793 7.80124 11.3877 7.79077 11.397C7.64463 11.5263 7.58799 11.7775 7.56038 12.0099C7.55514 12.0524 7.55134 12.0938 7.54753 12.1343C7.5442 12.1747 7.54134 12.2132 7.53848 12.2497C7.53706 12.268 7.5361 12.2858 7.53468 12.3025C7.5242 12.4476 7.51754 12.5932 7.51373 12.7393C7.5085 12.9579 7.51088 13.177 7.52087 13.3956C7.53039 13.6142 7.54705 13.8323 7.57038 14.0489C7.58989 14.233 7.61465 14.4165 7.64273 14.5976C7.65225 14.6583 7.66177 14.7185 7.67224 14.7787C7.67224 14.7812 7.67319 14.7837 7.67319 14.7861C7.67367 14.7911 7.67462 14.7955 7.67557 14.8004C7.68509 14.8557 7.69652 14.9115 7.7108 14.9662C7.75316 15.1306 7.81885 15.288 7.9269 15.4138C7.94166 15.4311 7.95737 15.4474 7.9726 15.4622C7.97498 15.4646 7.97736 15.4666 7.97974 15.4691C7.9945 15.4829 8.00925 15.4957 8.02449 15.5076C8.02734 15.51 8.0302 15.512 8.03305 15.5145C8.04829 15.5258 8.06352 15.5367 8.07875 15.5461C8.08113 15.5475 8.08351 15.549 8.08637 15.5505C8.10255 15.5599 8.11873 15.5688 8.13492 15.5762C8.13492 15.5762 8.13539 15.5762 8.13587 15.5762C8.15253 15.5836 8.16919 15.59 8.18585 15.5959C8.18823 15.5969 8.19109 15.5979 8.19347 15.5984C8.20965 15.6033 8.22584 15.6077 8.24202 15.6112C8.24535 15.6117 8.24821 15.6127 8.25154 15.6132C8.26772 15.6161 8.28438 15.6191 8.30104 15.6206C8.30342 15.6206 8.30581 15.6206 8.30866 15.6211C8.3258 15.6226 8.34293 15.6235 8.36055 15.6235C8.36055 15.6235 8.36102 15.6235 8.3615 15.6235L8.36245 15.625Z" fill="#110F23"/>
<path d="M13.0378 9.58998C13.0397 9.7094 13.0435 9.82388 13.0487 9.93294C13.0521 10.0055 13.0563 10.076 13.0606 10.1441C13.0678 10.2463 13.0759 10.3435 13.0858 10.4363C13.0925 10.498 13.0997 10.5572 13.1073 10.6149C13.1225 10.7299 13.1406 10.836 13.1601 10.9347C13.1701 10.984 13.1806 11.0314 13.1915 11.0768C13.1972 11.0995 13.2025 11.1217 13.2087 11.1434C13.232 11.2302 13.2572 11.3102 13.2843 11.3822C13.3115 11.4543 13.3405 11.5199 13.3715 11.5791C13.3867 11.6087 13.4029 11.6364 13.4191 11.6625C13.4271 11.6758 13.4357 11.6882 13.4438 11.7005C13.4538 11.7153 13.4643 11.7296 13.4747 11.7434C13.479 11.7489 13.4833 11.7543 13.4876 11.7597C13.4938 11.7676 13.5 11.7755 13.5062 11.7829C13.5109 11.7888 13.5157 11.7938 13.5209 11.7992C13.5271 11.8061 13.5328 11.813 13.539 11.8189C13.5438 11.8239 13.549 11.8288 13.5538 11.8333C13.56 11.8397 13.5661 11.8461 13.5723 11.852C13.5771 11.8564 13.5823 11.8609 13.5871 11.8653C13.5933 11.8708 13.5999 11.8767 13.6061 11.8821C13.6114 11.8866 13.6171 11.8905 13.6223 11.8944C13.6285 11.8994 13.6347 11.9043 13.6413 11.9088C13.6471 11.9127 13.6528 11.9162 13.658 11.9201C13.6642 11.9245 13.6704 11.929 13.677 11.9329C13.6828 11.9364 13.6885 11.9394 13.6942 11.9428C13.7008 11.9468 13.707 11.9507 13.7137 11.9542C13.7194 11.9571 13.7256 11.9601 13.7318 11.963C13.7385 11.966 13.7446 11.9695 13.7513 11.9724C13.7575 11.9754 13.7632 11.9773 13.7694 11.9798C13.7761 11.9828 13.7827 11.9852 13.7894 11.9877C13.7956 11.9902 13.8018 11.9922 13.8079 11.9941C13.8146 11.9966 13.8213 11.9991 13.8279 12.001C13.8341 12.003 13.8408 12.0045 13.847 12.006C13.8536 12.0079 13.8603 12.0099 13.867 12.0114C13.8732 12.0129 13.8798 12.0139 13.886 12.0153C13.8927 12.0168 13.8998 12.0183 13.9065 12.0193C13.9131 12.0203 13.9198 12.0213 13.9265 12.0223C13.9336 12.0232 13.9403 12.0242 13.9474 12.0252C13.9541 12.0257 13.9607 12.0262 13.9674 12.0267C13.9746 12.0272 13.9812 12.0282 13.9884 12.0282C13.995 12.0282 14.0017 12.0282 14.0083 12.0287C14.015 12.0287 14.0217 12.0292 14.0283 12.0292C14.0283 12.0292 14.0288 12.0292 14.0293 12.0292C14.0564 12.0292 14.0836 12.0277 14.1116 12.0252C14.1126 12.0252 14.1135 12.0252 14.115 12.0252C14.1426 12.0223 14.1711 12.0183 14.1992 12.0134C14.2002 12.0134 14.2011 12.0134 14.2021 12.0134C14.2306 12.0079 14.2597 12.0015 14.2887 11.9941C14.2897 11.9941 14.2906 11.9941 14.2911 11.9936C14.3206 11.9857 14.3501 11.9773 14.3796 11.9675C14.3801 11.9675 14.3811 11.9675 14.3815 11.967C14.4115 11.9571 14.4415 11.9463 14.472 11.9344C14.4725 11.9344 14.4729 11.9344 14.4734 11.9339C14.5039 11.9221 14.5348 11.9093 14.5657 11.8954C14.5657 11.8954 14.5662 11.8954 14.5667 11.8954C14.5976 11.8816 14.6291 11.8673 14.6605 11.852C14.6605 11.852 14.6605 11.852 14.661 11.852C14.6924 11.8367 14.7243 11.8204 14.7557 11.8036C14.7723 11.7948 14.788 11.7859 14.8033 11.7765C14.8794 11.7291 14.9385 11.6714 14.9827 11.6058C15.0003 11.5796 15.0156 11.552 15.0289 11.5229C15.0418 11.4938 15.0527 11.4637 15.0613 11.4321C15.0789 11.3694 15.0875 11.3013 15.0889 11.2298C15.0894 11.1937 15.0879 11.1567 15.0851 11.1187C15.066 10.8814 14.977 10.606 14.8475 10.3119C14.8218 10.2532 14.7942 10.1935 14.7652 10.1333C14.7362 10.0731 14.7062 10.0124 14.6748 9.9512C14.6433 9.89001 14.6105 9.82832 14.5772 9.76664C14.5267 9.67387 14.4744 9.58061 14.421 9.48685C14.3853 9.42467 14.3492 9.362 14.3125 9.29983C14.2578 9.20656 14.2021 9.1133 14.1464 9.02053C14.1093 8.95885 14.0721 8.89766 14.0355 8.83647C14.0169 8.80587 13.9988 8.77577 13.9803 8.74567C13.9255 8.65537 13.8717 8.56605 13.8194 8.47821C13.7846 8.41999 13.7504 8.36225 13.717 8.306C13.7056 8.28675 13.6947 8.268 13.6837 8.25024C13.6804 8.24431 13.6766 8.23938 13.6732 8.23346C13.6661 8.22161 13.6585 8.21027 13.6513 8.19892C13.6471 8.1925 13.6433 8.18658 13.639 8.18016C13.6328 8.17079 13.6261 8.16092 13.6199 8.15204C13.6156 8.14611 13.6118 8.14069 13.6076 8.13477C13.6014 8.12638 13.5957 8.11749 13.5895 8.1096C13.5857 8.10417 13.5814 8.09924 13.5776 8.09381C13.5719 8.08591 13.5661 8.07851 13.5604 8.07111C13.5566 8.06617 13.5528 8.06124 13.549 8.0568C13.5433 8.04989 13.5381 8.04347 13.5323 8.03706C13.5285 8.03262 13.5247 8.02818 13.5209 8.02423C13.5157 8.01831 13.5104 8.01239 13.5052 8.00696C13.5014 8.00301 13.4981 7.99956 13.4943 7.99561C13.489 7.99018 13.4838 7.98525 13.479 7.98031C13.4757 7.97686 13.4719 7.9739 13.4686 7.97044C13.4638 7.966 13.4586 7.96156 13.4538 7.95712C13.4505 7.95416 13.4471 7.95169 13.4438 7.94873C13.439 7.94478 13.4343 7.94133 13.4295 7.93787C13.4262 7.93541 13.4229 7.93294 13.42 7.93097C13.4152 7.92801 13.411 7.92504 13.4062 7.92208C13.4033 7.92011 13.4 7.91814 13.3972 7.91666C13.3929 7.91419 13.3886 7.91172 13.3838 7.90975C13.381 7.90827 13.3781 7.90679 13.3748 7.90531C13.3705 7.90333 13.3662 7.90185 13.3619 7.90037C13.3591 7.89938 13.3562 7.8984 13.3534 7.89741C13.3491 7.89642 13.3453 7.89544 13.3415 7.89445C13.3386 7.89396 13.3362 7.89297 13.3334 7.89297C13.3296 7.89248 13.3258 7.89198 13.3219 7.89198C13.3196 7.89198 13.3167 7.89149 13.3143 7.89149C13.3143 7.89149 13.3134 7.89149 13.3129 7.89149C13.312 7.89149 13.311 7.89149 13.31 7.89149C13.3024 7.89149 13.2948 7.89248 13.2877 7.89396C13.2858 7.89396 13.2843 7.89445 13.2824 7.89494C13.2743 7.89692 13.2667 7.89988 13.2591 7.90383C13.2582 7.90432 13.2567 7.90531 13.2558 7.9058C13.2491 7.90925 13.2425 7.91369 13.2363 7.91863C13.2348 7.91962 13.2339 7.9206 13.2325 7.92159C13.2253 7.92751 13.2187 7.93393 13.212 7.94133C13.211 7.94232 13.2101 7.9438 13.2091 7.94478C13.2034 7.95169 13.1972 7.95909 13.192 7.96699C13.191 7.96798 13.1906 7.96946 13.1896 7.97044C13.1834 7.97933 13.1777 7.98919 13.172 7.99956C13.1711 8.00104 13.1706 8.00252 13.1696 8.004C13.1644 8.01387 13.1592 8.02423 13.1544 8.03558C13.1544 8.03657 13.1534 8.03755 13.153 8.03805C13.1477 8.04989 13.143 8.06223 13.1382 8.07555C13.1377 8.07703 13.1368 8.079 13.1363 8.08048C13.1315 8.09331 13.1273 8.10664 13.123 8.12095C13.1187 8.13526 13.1144 8.15006 13.1106 8.16536C13.1106 8.16733 13.1096 8.16881 13.1092 8.17079C13.1016 8.20138 13.0944 8.23296 13.0882 8.26603C13.0882 8.26751 13.0878 8.26948 13.0873 8.27096C13.0811 8.30452 13.0754 8.33857 13.0706 8.3736C13.0706 8.37508 13.0706 8.37656 13.0701 8.37804C13.0654 8.41357 13.0611 8.44959 13.0573 8.48512C13.0573 8.48611 13.0573 8.4871 13.0573 8.48858C13.0535 8.5246 13.0506 8.56112 13.0482 8.59664C13.0482 8.59763 13.0482 8.59862 13.0482 8.59961C13.0459 8.63514 13.0435 8.67066 13.0421 8.70471C13.0421 8.7057 13.0421 8.70619 13.0421 8.70718C13.0406 8.74172 13.0392 8.77478 13.0382 8.80637C13.0382 8.80637 13.0382 8.80637 13.0382 8.80686C13.0382 8.82265 13.0373 8.83795 13.0373 8.85275C13.0373 8.85275 13.0373 8.85325 13.0373 8.85374C13.0373 8.86854 13.0368 8.88285 13.0368 8.89667C13.0368 8.90999 13.0368 8.92282 13.0368 8.93565C13.0368 8.93664 13.0368 8.93812 13.0368 8.93911C13.0368 8.96279 13.0368 8.98451 13.0368 9.00326C13.0368 9.00474 13.0368 9.00572 13.0368 9.00671C13.0368 9.02497 13.0368 9.04027 13.0373 9.05211C13.0373 9.0531 13.0373 9.05408 13.0373 9.05507C13.0373 9.06642 13.0373 9.07481 13.0378 9.07925C13.0378 9.07925 13.0378 9.07925 13.0378 9.07974C13.0378 9.08172 13.0378 9.0827 13.0378 9.0827C13.0363 9.17202 13.0359 9.25936 13.0359 9.34375C13.0359 9.42813 13.0368 9.51054 13.0382 9.58998H13.0378Z" fill="#110F23"/>
<path d="M17.3651 14.6391C17.3799 14.6904 17.4013 14.7397 17.4294 14.7871C17.4503 14.8226 17.4746 14.8567 17.5022 14.8893C17.5208 14.911 17.5403 14.9322 17.5617 14.9524C17.5936 14.983 17.6284 15.0116 17.6655 15.0383C17.6902 15.0561 17.7164 15.0733 17.7436 15.0891C17.7845 15.1133 17.8278 15.1355 17.873 15.1552C18.0396 15.2278 18.2353 15.2697 18.4447 15.2697C18.597 15.2697 18.7422 15.2475 18.8741 15.2075C18.9069 15.1977 18.9393 15.1863 18.9707 15.1745C19.0021 15.1626 19.0321 15.1493 19.0616 15.135C19.1792 15.0783 19.2801 15.0057 19.3596 14.9218C19.3853 14.8947 19.4082 14.8666 19.4286 14.8375C19.4353 14.8281 19.4415 14.8187 19.4477 14.8093C19.5038 14.722 19.5381 14.6258 19.5462 14.5246C19.5471 14.5103 19.5481 14.4955 19.5481 14.4812C19.5481 14.42 19.5381 14.3603 19.52 14.303C19.4891 14.2078 19.4343 14.119 19.3601 14.04C19.2806 13.9561 19.1797 13.8836 19.0621 13.8268C19.0326 13.8125 19.0026 13.7997 18.9712 13.7874C18.9398 13.775 18.9079 13.7642 18.8745 13.7543C18.7427 13.7143 18.5975 13.6921 18.4452 13.6921C18.2357 13.6921 18.0401 13.7341 17.8735 13.8066C17.8283 13.8263 17.785 13.8486 17.744 13.8727C17.7169 13.889 17.6907 13.9058 17.666 13.9236C17.6284 13.9502 17.5936 13.9788 17.5622 14.0094C17.5413 14.0297 17.5213 14.0509 17.5027 14.0726C17.4751 14.1052 17.4508 14.1392 17.4299 14.1747C17.4018 14.2221 17.3804 14.2715 17.3656 14.3228C17.3509 14.3741 17.3432 14.4274 17.3432 14.4817C17.3432 14.5359 17.3509 14.5892 17.3656 14.6406L17.3651 14.6391Z" fill="#110F23"/>
<path d="M11.1966 17.9542C11.2351 18.039 11.287 18.1121 11.3522 18.1698C11.3741 18.189 11.3975 18.2068 11.4222 18.2226C11.4222 18.2226 11.4222 18.2226 11.4227 18.2226C11.4346 18.23 11.4465 18.2369 11.4589 18.2438C11.4631 18.2458 11.4674 18.2478 11.4712 18.2497C11.4798 18.2537 11.4879 18.2581 11.4965 18.2621C11.5017 18.2641 11.5065 18.266 11.5117 18.268C11.5193 18.271 11.5274 18.2744 11.5355 18.2769C11.5412 18.2789 11.5464 18.2803 11.5522 18.2823C11.5598 18.2848 11.5674 18.2872 11.5755 18.2892C11.5812 18.2907 11.5874 18.2922 11.5931 18.2937C11.6007 18.2956 11.6088 18.2971 11.6164 18.2986C11.6226 18.2996 11.6288 18.3006 11.635 18.3016C11.6426 18.3025 11.6507 18.304 11.6583 18.305C11.6645 18.3055 11.6707 18.3065 11.6774 18.307C11.6854 18.3075 11.6931 18.3085 11.7012 18.3085C11.7078 18.3085 11.714 18.309 11.7207 18.309C11.7245 18.309 11.7283 18.309 11.7326 18.309C11.7349 18.309 11.7378 18.309 11.7402 18.309C11.7607 18.309 11.7811 18.308 11.8016 18.306C11.8025 18.306 11.8035 18.306 11.8044 18.306C11.8244 18.304 11.8444 18.3011 11.8649 18.2971C11.8697 18.2961 11.8749 18.2951 11.8797 18.2942C11.9006 18.2897 11.9215 18.2853 11.943 18.2794C11.9453 18.2789 11.9477 18.2779 11.9501 18.2774C11.9696 18.2719 11.9891 18.2655 12.0087 18.2586C12.0134 18.2567 12.0186 18.2552 12.0234 18.2532C12.0448 18.2453 12.0658 18.2364 12.0872 18.227C12.0905 18.2256 12.0939 18.2241 12.0972 18.2226C12.1162 18.2137 12.1353 18.2043 12.1543 18.1945C12.1591 18.192 12.1634 18.1895 12.1681 18.1871C12.1895 18.1757 12.2105 18.1634 12.2319 18.1501C12.2357 18.1476 12.2395 18.1451 12.2433 18.1427C12.2619 18.1308 12.2804 18.1185 12.299 18.1057C12.3033 18.1027 12.3076 18.0997 12.3114 18.0968C12.3323 18.082 12.3533 18.0662 12.3737 18.0494C12.378 18.0459 12.3823 18.0425 12.3866 18.039C12.4047 18.0242 12.4233 18.0089 12.4409 17.9927C12.4442 17.9897 12.448 17.9867 12.4513 17.9833C12.4713 17.965 12.4913 17.9463 12.5113 17.9265C12.5156 17.9221 12.5204 17.9176 12.5246 17.9132C12.5423 17.8954 12.5599 17.8767 12.577 17.8579C12.5799 17.855 12.5822 17.852 12.5851 17.8491C12.6041 17.8278 12.6232 17.8056 12.6417 17.7829C12.646 17.7775 12.6503 17.7721 12.6546 17.7666C12.6717 17.7449 12.6889 17.7232 12.7055 17.7005C12.707 17.6985 12.7084 17.6966 12.7098 17.6946C12.7274 17.6704 12.745 17.6453 12.7617 17.6201C12.766 17.6137 12.7698 17.6078 12.7741 17.6013C12.7912 17.5752 12.8079 17.549 12.824 17.5219C12.834 17.5046 12.8431 17.4873 12.8526 17.4701C12.8726 17.4341 12.8916 17.398 12.9093 17.3615C12.9421 17.2934 12.9716 17.2253 12.9959 17.1572C13.0268 17.0699 13.0506 16.9825 13.0673 16.8972C13.082 16.8236 13.092 16.7516 13.0963 16.6815C13.103 16.568 13.0963 16.46 13.0763 16.3613C13.063 16.2956 13.043 16.2335 13.0178 16.1772C13.0049 16.1491 12.9906 16.1219 12.9749 16.0963C12.9273 16.0198 12.8669 15.9556 12.7926 15.9083C12.7807 15.9009 12.7684 15.8935 12.756 15.8871C12.7522 15.8851 12.7479 15.8831 12.7441 15.8811C12.7355 15.8767 12.7269 15.8727 12.7179 15.8688C12.7131 15.8668 12.7079 15.8648 12.7031 15.8629C12.6951 15.8594 12.687 15.8565 12.6789 15.8535C12.6736 15.8515 12.6679 15.85 12.6622 15.8481C12.6546 15.8456 12.6465 15.8431 12.6384 15.8412C12.6327 15.8397 12.627 15.8382 12.6208 15.8372C12.6132 15.8352 12.6051 15.8338 12.5975 15.8323C12.5913 15.8313 12.5851 15.8303 12.5794 15.8293C12.5718 15.8283 12.5637 15.8268 12.5556 15.8259C12.5494 15.8254 12.5432 15.8244 12.5365 15.8239C12.5284 15.8234 12.5208 15.8229 12.5127 15.8224C12.5061 15.8224 12.4999 15.8219 12.4932 15.8219C12.4894 15.8219 12.4856 15.8219 12.4813 15.8219C12.4789 15.8219 12.4761 15.8219 12.4737 15.8219C12.4532 15.8219 12.4328 15.8229 12.4123 15.8249C12.4114 15.8249 12.4109 15.8249 12.4099 15.8249C12.3899 15.8268 12.3695 15.8303 12.349 15.8338C12.3442 15.8347 12.339 15.8357 12.3342 15.8367C12.3133 15.8412 12.2919 15.8456 12.2709 15.8515C12.269 15.852 12.2666 15.853 12.2647 15.8535C12.2452 15.8589 12.2252 15.8658 12.2052 15.8727C12.2005 15.8742 12.1957 15.8762 12.191 15.8777C12.1695 15.8856 12.1481 15.8945 12.1267 15.9038C12.1238 15.9053 12.1205 15.9068 12.1177 15.9083C12.0981 15.9172 12.0791 15.9265 12.0601 15.9369C12.0558 15.9394 12.051 15.9413 12.0467 15.9438C12.0253 15.9556 12.0039 15.968 11.9829 15.9808C11.9791 15.9833 11.9753 15.9857 11.9715 15.9882C11.9525 16.0001 11.9339 16.0129 11.9154 16.0257C11.9111 16.0287 11.9073 16.0311 11.903 16.0341C11.882 16.0489 11.8611 16.0647 11.8406 16.0815C11.8363 16.0849 11.8321 16.0884 11.8282 16.0918C11.8097 16.1066 11.7916 16.1219 11.7735 16.1382C11.7702 16.1412 11.7664 16.1441 11.763 16.1471C11.7426 16.1654 11.7226 16.1841 11.7031 16.2039C11.6988 16.2083 11.6945 16.2127 11.6897 16.2172C11.6721 16.2349 11.6545 16.2537 11.6369 16.2729C11.6345 16.2759 11.6317 16.2784 11.6288 16.2813C11.6098 16.3025 11.5907 16.3248 11.5722 16.3475C11.5679 16.3529 11.5636 16.3583 11.5588 16.3637C11.5417 16.385 11.5246 16.4072 11.5079 16.4299C11.5065 16.4318 11.5046 16.4338 11.5031 16.4363C11.4855 16.4605 11.4679 16.4856 11.4512 16.5108C11.447 16.5172 11.4432 16.5231 11.4389 16.5295C11.4222 16.5552 11.4056 16.5814 11.3894 16.6085C11.3894 16.6085 11.3894 16.6085 11.3894 16.609C11.2242 16.8888 11.1338 17.1844 11.1176 17.4498C11.1152 17.4878 11.1147 17.5248 11.1152 17.5614C11.1166 17.6344 11.1242 17.7045 11.1376 17.7701C11.1509 17.8357 11.1709 17.8979 11.1961 17.9542H11.1966Z" fill="#110F23"/>
<path d="M17.937 9.12122C18.2413 8.80576 18.2413 8.29429 17.937 7.97883C17.6327 7.66336 17.1393 7.66336 16.835 7.97883C16.5307 8.29429 16.5307 8.80576 16.835 9.12122C17.1393 9.43669 17.6327 9.43669 17.937 9.12122Z" fill="#110F23"/>
<path d="M20.6506 9.75623C20.9549 9.44076 20.9549 8.9293 20.6506 8.61383C20.3463 8.29837 19.8529 8.29837 19.5486 8.61383C19.2443 8.9293 19.2443 9.44076 19.5486 9.75623C19.8529 10.0717 20.3463 10.0717 20.6506 9.75623Z" fill="#110F23"/>
<path d="M21.9673 11.9025C22.3862 11.8001 22.6456 11.365 22.5467 10.9308C22.4478 10.4966 22.0282 10.2277 21.6093 10.3301C21.1905 10.4326 20.9311 10.8677 21.0299 11.3019C21.1288 11.7361 21.5485 12.005 21.9673 11.9025Z" fill="#110F23"/>
<path d="M26.871 7.59641L26.3164 6.99044C26.165 6.82513 25.9232 6.79059 25.7347 6.90803C24.479 7.68819 22.1361 9.84955 22.7859 10.4846C23.3552 11.0413 25.8399 9.11479 26.821 8.31341C27.038 8.13626 27.0614 7.80416 26.871 7.59641Z" fill="#110F23"/>
<path d="M17.2485 7.33783C18.1786 7.24012 17.953 3.57025 17.8635 2.4649C17.8488 2.2838 17.7131 2.13823 17.5389 2.1175L16.574 2.00252C16.3831 1.97982 16.2075 2.11257 16.1704 2.30798C15.9114 3.67832 16.2556 7.44244 17.2485 7.33783Z" fill="#110F23"/>
<path d="M20.4877 8.05483C21.3065 8.34696 22.4446 5.67882 22.8559 4.63021C22.9453 4.40273 22.8421 4.14267 22.624 4.04596L21.713 3.63984C21.4902 3.54065 21.2322 3.64872 21.1389 3.88065C20.7053 4.95837 19.668 7.76221 20.4873 8.05483H20.4877Z" fill="#110F23"/>
</svg>
