<svg width="32" height="32" viewBox="0 0 32 32" fill="none" xmlns="http://www.w3.org/2000/svg">
<path d="M24.6429 20.19C24.4679 18.16 22.3929 16.8025 22.3929 16.8025C22.3929 16.8025 25.0379 16.085 25.3104 12.95C25.4829 10.95 24.2229 8.8625 21.0604 7.9325L22.1504 3.815L19.5554 3.1275L18.4679 7.235L16.3154 6.665L17.4029 2.5575L14.8029 1.87L13.7154 5.9775L9.53535 4.87L8.84785 7.4625L11.3929 8.135L8.07285 20.6775L5.52785 20L4.79785 22.75L8.97785 23.8575L7.89035 27.9725L10.5004 28.675L11.5904 24.56L13.7429 25.13L12.6429 29.25L15.2504 29.9325L16.3404 25.8175L16.9429 25.975C22.0229 27.25 24.9429 23.69 24.6429 20.19ZM15.6954 9.275C15.6954 9.275 16.7504 9.5475 18.2654 9.955C19.7029 10.3425 20.7979 11.6125 20.4604 13.045C20.1229 14.4775 18.6254 15.39 17.0529 15C15.6104 14.64 14.3679 14.29 14.3679 14.29L15.6954 9.275ZM15.8129 22.7275C14.3129 22.3625 12.3754 21.8175 12.3754 21.8175L13.7504 16.61C13.7504 16.61 15.5004 17.11 17.0579 17.485C18.9204 17.945 20.0579 19.1675 19.6479 20.805C19.2379 22.4425 17.8354 23.22 15.8129 22.7275Z" fill="#110F23"/>
</svg>
