<svg width="32" height="32" viewBox="0 0 32 32" fill="none" xmlns="http://www.w3.org/2000/svg">
<path d="M16 4C9.37228 4 4 9.37228 4 16C4 22.6277 9.37228 28 16 28C22.6277 28 28 22.6277 28 16C28 9.37228 22.6266 4 16 4ZM19.8727 16.3405L19.6465 16.1176L16.1747 19.6263C16.1747 19.6263 16.168 19.6342 16.1635 19.6375L16.0986 19.7036C16.0986 19.7036 16.0963 19.7058 16.0941 19.7081L16.0672 19.735C15.1477 20.6309 13.9371 21.1237 12.6525 21.1237C9.95464 21.1237 7.75959 18.9286 7.75959 16.2307C7.75959 13.5328 9.95464 11.3378 12.6525 11.3378C13.8968 11.3378 15.0716 11.8003 15.9787 12.6425L12.5394 16.1187L12.6525 16.2307L12.7657 16.3427L16.3181 12.7522L16.3225 12.7477C17.2442 11.8395 18.4638 11.3389 19.7573 11.3389C22.4552 11.3389 24.6503 13.5339 24.6503 16.2318C24.6503 18.9297 22.4552 21.1248 19.7573 21.1248C18.5131 21.1248 17.3383 20.6622 16.4312 19.8201L19.8705 16.3438L19.8727 16.3405Z" fill="#110F23"/>
</svg>
