<svg width="32" height="32" viewBox="0 0 32 32" fill="none" xmlns="http://www.w3.org/2000/svg">
<path d="M5.48814 23.2706C6.57516 24.7843 7.97621 26.0485 9.58661 26.9906C11.197 27.9246 12.9926 28.5124 14.8446 28.7057C13.8864 27.2724 12.5014 25.9519 10.7703 24.9454C9.03907 23.9389 7.20322 23.3913 5.48814 23.2706Z" fill="#110F23"/>
<path d="M13.0972 20.9355C9.76364 18.9949 6.14829 18.5038 3.5636 19.3734C3.81321 20.1947 4.14335 20.9918 4.54595 21.7568C6.79245 21.7085 9.24026 22.3124 11.519 23.6409C13.7977 24.9615 15.545 26.7973 16.6078 28.7701C17.4694 28.7459 18.3229 28.6332 19.1684 28.4399C18.645 25.7667 16.4227 22.8679 13.0891 20.9355H13.0972Z" fill="#110F23"/>
<path d="M29 13.0687C28.5732 11.3455 27.8083 9.71904 26.7454 8.30188C25.6826 6.88473 24.3379 5.68498 22.8 4.79121C21.262 3.89744 19.563 3.32575 17.7997 3.10029C16.0363 2.88288 14.2487 3.01977 12.5417 3.50289C15.4002 3.84913 18.5646 4.92004 21.6727 6.73174C24.7807 8.53539 27.2849 10.7577 29 13.0687Z" fill="#110F23"/>
<path d="M24.845 19.3976C23.3876 16.9739 20.8834 14.6469 17.7995 12.8593C14.7156 11.0718 11.4545 10.0411 8.62826 9.97671C6.14019 9.92035 4.27212 10.645 3.50718 11.9575C3.50718 11.9575 3.49913 11.9736 3.49108 11.9817C3.41861 12.2313 3.36225 12.4809 3.30588 12.7224C4.3768 12.3037 5.61681 12.0622 6.9937 12.038C10.0615 11.9817 13.4917 12.964 16.6642 14.7999C19.8286 16.6438 22.3891 19.1399 23.8546 21.8293C24.5149 23.0451 24.9255 24.2368 25.0866 25.3802C25.2798 25.2111 25.465 25.034 25.6421 24.8568C25.6421 24.8488 25.6421 24.8407 25.6582 24.8327C26.4232 23.5121 26.1253 21.5313 24.845 19.3976Z" fill="#110F23"/>
<path d="M15.4484 16.8933C10.7299 14.1476 5.51222 13.7208 3 15.6372C3 16.2331 3.04831 16.837 3.13688 17.4248C3.87767 17.1993 4.63456 17.0624 5.40755 17.0061C8.20965 16.7967 11.3016 17.5778 14.1118 19.2043C16.9139 20.8388 19.1282 23.1336 20.336 25.67C20.6661 26.3625 20.9238 27.0952 21.0929 27.8521C21.6484 27.6347 22.196 27.377 22.7194 27.0872C23.1381 23.9549 20.183 19.6391 15.4564 16.8933H15.4484Z" fill="#110F23"/>
<path d="M27.2688 15.3313C25.7872 12.9076 23.2669 10.5806 20.1588 8.77696C17.0508 6.97331 13.7816 5.9346 10.9473 5.85408C8.78135 5.78967 7.10654 6.31305 6.23692 7.30345C9.84422 6.69149 14.603 7.72215 19.2167 10.4035C23.8305 13.0848 27.0836 16.7082 28.3397 20.1464C28.7664 18.8983 28.396 17.1833 27.2688 15.3393V15.3313Z" fill="#110F23"/>
</svg>
